<mxfile host="app.diagrams.net" modified="2023-09-26T06:30:51.173Z" agent="Mozilla/5.0 (Windows NT 10.0; Win64; x64) AppleWebKit/537.36 (KHTML, like Gecko) Chrome/117.0.0.0 Safari/537.36" etag="-D0Sz77zfHOt79aW6uie" version="21.7.5" type="github">
  <diagram id="R2lEEEUBdFMjLlhIrx00" name="Page-1">
    <mxGraphModel dx="1050" dy="566" grid="1" gridSize="10" guides="1" tooltips="1" connect="1" arrows="1" fold="1" page="1" pageScale="1" pageWidth="850" pageHeight="1100" math="0" shadow="0" extFonts="Permanent Marker^https://fonts.googleapis.com/css?family=Permanent+Marker">
      <root>
        <mxCell id="0" />
        <mxCell id="1" parent="0" />
        <mxCell id="jRGYHb-jrVyEd7X3nzSm-1" value="" style="group" vertex="1" connectable="0" parent="1">
          <mxGeometry x="320" y="140" width="210" height="270" as="geometry" />
        </mxCell>
        <mxCell id="UkjU__CIFBFix5czU-bX-1" value="EMPLOYEE" style="rounded=0;whiteSpace=wrap;html=1;" parent="jRGYHb-jrVyEd7X3nzSm-1" vertex="1">
          <mxGeometry x="45" width="120" height="60" as="geometry" />
        </mxCell>
        <mxCell id="UkjU__CIFBFix5czU-bX-2" value="SUPERVISION" style="rhombus;whiteSpace=wrap;html=1;" parent="jRGYHb-jrVyEd7X3nzSm-1" vertex="1">
          <mxGeometry x="13" y="160" width="185" height="110" as="geometry" />
        </mxCell>
        <mxCell id="UkjU__CIFBFix5czU-bX-3" value="" style="endArrow=none;html=1;rounded=0;exitX=0.686;exitY=0.182;exitDx=0;exitDy=0;entryX=0.791;entryY=0.994;entryDx=0;entryDy=0;entryPerimeter=0;exitPerimeter=0;" parent="jRGYHb-jrVyEd7X3nzSm-1" source="UkjU__CIFBFix5czU-bX-2" target="UkjU__CIFBFix5czU-bX-1" edge="1">
          <mxGeometry width="50" height="50" relative="1" as="geometry">
            <mxPoint x="80" y="160" as="sourcePoint" />
            <mxPoint x="140" y="70" as="targetPoint" />
          </mxGeometry>
        </mxCell>
        <mxCell id="UkjU__CIFBFix5czU-bX-4" value="" style="endArrow=none;html=1;rounded=0;exitX=1;exitY=0;exitDx=0;exitDy=0;" parent="jRGYHb-jrVyEd7X3nzSm-1" edge="1">
          <mxGeometry width="50" height="50" relative="1" as="geometry">
            <mxPoint x="70" y="180" as="sourcePoint" />
            <mxPoint x="70" y="60" as="targetPoint" />
          </mxGeometry>
        </mxCell>
        <mxCell id="UkjU__CIFBFix5czU-bX-5" value="2&lt;br&gt;supervisee&lt;br&gt;N" style="text;html=1;strokeColor=none;fillColor=none;align=center;verticalAlign=middle;whiteSpace=wrap;rounded=0;" parent="jRGYHb-jrVyEd7X3nzSm-1" vertex="1">
          <mxGeometry x="150" y="110" width="60" height="30" as="geometry" />
        </mxCell>
        <mxCell id="UkjU__CIFBFix5czU-bX-6" value="1&lt;br&gt;supervisor&lt;br&gt;1" style="text;html=1;strokeColor=none;fillColor=none;align=center;verticalAlign=middle;whiteSpace=wrap;rounded=0;" parent="jRGYHb-jrVyEd7X3nzSm-1" vertex="1">
          <mxGeometry y="110" width="60" height="30" as="geometry" />
        </mxCell>
        <mxCell id="jRGYHb-jrVyEd7X3nzSm-2" value="" style="group" vertex="1" connectable="0" parent="1">
          <mxGeometry x="470" y="530" width="307" height="270" as="geometry" />
        </mxCell>
        <mxCell id="YRL1aDV56gZqPslC9Zfp-2" value="EMPLOYEE" style="rounded=0;whiteSpace=wrap;html=1;" parent="jRGYHb-jrVyEd7X3nzSm-2" vertex="1">
          <mxGeometry x="92" width="120" height="60" as="geometry" />
        </mxCell>
        <mxCell id="YRL1aDV56gZqPslC9Zfp-3" value="SUPERVISION" style="rhombus;whiteSpace=wrap;html=1;" parent="jRGYHb-jrVyEd7X3nzSm-2" vertex="1">
          <mxGeometry x="60" y="160" width="185" height="110" as="geometry" />
        </mxCell>
        <mxCell id="YRL1aDV56gZqPslC9Zfp-4" value="" style="endArrow=none;html=1;rounded=0;exitX=1;exitY=0.5;exitDx=0;exitDy=0;entryX=0.791;entryY=0.994;entryDx=0;entryDy=0;entryPerimeter=0;" parent="jRGYHb-jrVyEd7X3nzSm-2" source="YRL1aDV56gZqPslC9Zfp-3" target="YRL1aDV56gZqPslC9Zfp-2" edge="1">
          <mxGeometry width="50" height="50" relative="1" as="geometry">
            <mxPoint x="127" y="160" as="sourcePoint" />
            <mxPoint x="187" y="70" as="targetPoint" />
          </mxGeometry>
        </mxCell>
        <mxCell id="YRL1aDV56gZqPslC9Zfp-5" value="" style="endArrow=none;html=1;rounded=0;exitX=0;exitY=0.5;exitDx=0;exitDy=0;" parent="jRGYHb-jrVyEd7X3nzSm-2" source="YRL1aDV56gZqPslC9Zfp-3" edge="1">
          <mxGeometry width="50" height="50" relative="1" as="geometry">
            <mxPoint x="117" y="180" as="sourcePoint" />
            <mxPoint x="117" y="60" as="targetPoint" />
          </mxGeometry>
        </mxCell>
        <mxCell id="YRL1aDV56gZqPslC9Zfp-6" value="2&lt;br&gt;supervisee&lt;br&gt;N" style="text;html=1;strokeColor=none;fillColor=none;align=center;verticalAlign=middle;whiteSpace=wrap;rounded=0;" parent="jRGYHb-jrVyEd7X3nzSm-2" vertex="1">
          <mxGeometry x="247" y="160" width="60" height="30" as="geometry" />
        </mxCell>
        <mxCell id="YRL1aDV56gZqPslC9Zfp-7" value="1&lt;br&gt;supervisor&lt;br&gt;1" style="text;html=1;strokeColor=none;fillColor=none;align=center;verticalAlign=middle;whiteSpace=wrap;rounded=0;" parent="jRGYHb-jrVyEd7X3nzSm-2" vertex="1">
          <mxGeometry y="160" width="60" height="30" as="geometry" />
        </mxCell>
      </root>
    </mxGraphModel>
  </diagram>
</mxfile>
